<svg version="1.1" xmlns="http://www.w3.org/2000/svg" xmlns:xlink="http://www.w3.org/1999/xlink" width="50px" height="50px" viewBox="0,0,256,256"><g fill="#3d9cff" fill-rule="nonzero" stroke="none" stroke-width="1" stroke-linecap="butt" stroke-linejoin="miter" stroke-miterlimit="10" stroke-dasharray="" stroke-dashoffset="0" font-family="none" font-weight="none" font-size="none" text-anchor="none" style="mix-blend-mode: normal"><g transform="scale(5.12,5.12)"><path d="M20,3c-9.374,0 -17,7.626 -17,17c0,9.374 7.626,17 17,17c3.7131,0 7.1455,-1.20174 9.94141,-3.23047l13.14453,13.14453l2.82812,-2.82812l-13.03125,-13.03125c1.93234,-2.25374 3.29123,-5.01305 3.83594,-8.05469h-2.02148c-1.394,6.838 -7.45327,12 -14.69727,12c-7.93341,0 -14.43063,-6.19561 -14.94922,-14h4.36328l5.58594,-5.58594l12,12l6.41406,-6.41406h13.58594v-2h-14.41406l-5.58594,5.58594l-12,-12l-6.41406,6.41406h-3.53516c0.51859,-7.80438 7.01581,-14 14.94922,-14c7.244,0 13.30327,5.162 14.69727,12h2.02148c-1.423,-7.946 -8.36975,-14 -16.71875,-14z"></path></g></g></svg>